<svg id="visual" viewBox="0 0 900 600" width="900" height="600" xmlns="http://www.w3.org/2000/svg" xmlns:xlink="http://www.w3.org/1999/xlink" version="1.1"><path d="M0 350L25 340.8C50 331.7 100 313.3 150 292.2C200 271 250 247 300 240.7C350 234.3 400 245.7 450 257.5C500 269.3 550 281.7 600 270C650 258.3 700 222.7 750 210.5C800 198.3 850 209.7 875 215.3L900 221L900 0L875 0C850 0 800 0 750 0C700 0 650 0 600 0C550 0 500 0 450 0C400 0 350 0 300 0C250 0 200 0 150 0C100 0 50 0 25 0L0 0Z" fill="#E3B505" stroke-linecap="round" stroke-linejoin="miter"></path></svg>