<svg xmlns="http://www.w3.org/2000/svg" version="1.1" xmlns:xlink="http://www.w3.org/1999/xlink" xmlns:svgjs="http://svgjs.com/svgjs" width="1440" height="560" preserveAspectRatio="none" viewBox="0 0 1440 560"><g mask="url(&quot;#SvgjsMask1003&quot;)" fill="none"><rect width="1440" height="560" x="0" y="0" fill="rgba(8, 76, 97, 1)"></rect><path d="M 0,176 C 57.6,143.6 172.8,-2.8 288,14 C 403.2,30.8 460.8,244.4 576,260 C 691.2,275.6 748.8,97 864,92 C 979.2,87 1036.8,228.6 1152,235 C 1267.2,241.4 1382.4,146.2 1440,124L1440 560L0 560z" fill="rgba(79, 109, 122, 1)"></path><path d="M 0,375 C 96,401.2 288,512.6 480,506 C 672,499.4 768,340 960,342 C 1152,344 1344,481.2 1440,516L1440 560L0 560z" fill="rgba(86, 163, 166, 1)"></path></g><defs><mask id="SvgjsMask1003"><rect width="1440" height="560" fill="#ffffff"></rect></mask></defs></svg>