<svg id="visual" viewBox="0 0 900 600" width="900" height="600" xmlns="http://www.w3.org/2000/svg" xmlns:xlink="http://www.w3.org/1999/xlink" version="1.1"><path d="M0 344L30 331.7C60 319.3 120 294.7 180 283.8C240 273 300 276 360 289.5C420 303 480 327 540 332C600 337 660 323 720 313.8C780 304.7 840 300.3 870 298.2L900 296L900 0L870 0C840 0 780 0 720 0C660 0 600 0 540 0C480 0 420 0 360 0C300 0 240 0 180 0C120 0 60 0 30 0L0 0Z" fill="#E3B505" stroke-linecap="round" stroke-linejoin="miter"></path></svg>