<svg xmlns="http://www.w3.org/2000/svg" version="1.1" xmlns:xlink="http://www.w3.org/1999/xlink" xmlns:svgjs="http://svgjs.com/svgjs" width="2000" height="400" preserveAspectRatio="none" viewBox="0 0 2000 400"><g mask="url(&quot;#SvgjsMask1032&quot;)" fill="none"><rect width="2000" height="400" x="0" y="0" fill="rgba(8, 76, 97, 1)"></rect><path d="M 0,125 C 80,116.2 240,81.4 400,81 C 560,80.6 640,133.6 800,123 C 960,112.4 1040,24 1200,28 C 1360,32 1440,141.6 1600,143 C 1760,144.4 1920,56.6 2000,35L2000 400L0 400z" fill="rgba(79, 109, 122, 1)"></path><path d="M 0,361 C 133.4,335.8 400.2,234.8 667,235 C 933.8,235.2 1067.4,361.2 1334,362 C 1600.6,362.8 1866.8,263.6 2000,239L2000 400L0 400z" fill="rgba(86, 163, 166, 1)"></path></g><defs><mask id="SvgjsMask1032"><rect width="2000" height="400" fill="#ffffff"></rect></mask></defs></svg>