<svg xmlns="http://www.w3.org/2000/svg" xmlns:xlink="http://www.w3.org/1999/xlink" width="377" zoomAndPan="magnify" viewBox="0 0 283.5 84.749997" height="113" preserveAspectRatio="xMidYMid meet" version="1.0"><defs><g/></defs><g fill="#d9d9d9" fill-opacity="1"><g transform="translate(8.661531, 60.180704)"><g><path d="M 34.390625 -17.265625 C 34.484375 -16.910156 34.550781 -16.585938 34.59375 -16.296875 C 34.644531 -16.003906 34.691406 -15.769531 34.734375 -15.59375 C 34.734375 -15.457031 34.742188 -15.3125 34.765625 -15.15625 C 34.785156 -15 34.796875 -14.851562 34.796875 -14.71875 L 34.796875 -9.171875 C 34.796875 -9.078125 34.757812 -8.796875 34.6875 -8.328125 C 34.625 -7.859375 34.460938 -7.289062 34.203125 -6.625 C 33.929688 -5.957031 33.472656 -5.234375 32.828125 -4.453125 C 32.179688 -3.671875 31.273438 -2.941406 30.109375 -2.265625 C 28.953125 -1.597656 27.46875 -1.039062 25.65625 -0.59375 C 23.851562 -0.15625 21.632812 0.0625 19 0.0625 C 18.78125 0.0625 18.476562 0.0625 18.09375 0.0625 C 17.71875 0.0625 17.015625 0.0625 15.984375 0.0625 C 14.960938 0.0625 13.445312 0.0507812 11.4375 0.03125 C 9.4375 0.0078125 6.671875 0 3.140625 0 L 3.140625 -39.421875 C 3.097656 -39.910156 2.953125 -40.273438 2.703125 -40.515625 C 2.460938 -40.765625 2.296875 -40.910156 2.203125 -40.953125 C 1.984375 -41.085938 1.875 -41.265625 1.875 -41.484375 C 1.875 -41.929688 2.070312 -42.15625 2.46875 -42.15625 L 19.40625 -42.15625 C 22.925781 -42.113281 25.691406 -41.679688 27.703125 -40.859375 C 29.710938 -40.035156 31.238281 -39.109375 32.28125 -38.078125 C 33.332031 -37.054688 33.992188 -36.050781 34.265625 -35.0625 C 34.535156 -34.082031 34.691406 -33.414062 34.734375 -33.0625 C 34.734375 -32.925781 34.742188 -32.78125 34.765625 -32.625 C 34.785156 -32.46875 34.796875 -32.320312 34.796875 -32.1875 L 34.796875 -30.3125 C 34.753906 -29.375 34.53125 -28.460938 34.125 -27.578125 C 33.769531 -26.816406 33.203125 -26 32.421875 -25.125 C 31.640625 -24.257812 30.515625 -23.492188 29.046875 -22.828125 C 30.785156 -22.015625 32.046875 -21.09375 32.828125 -20.0625 C 33.609375 -19.039062 34.128906 -18.109375 34.390625 -17.265625 Z M 22.890625 -35.734375 C 22.847656 -36.222656 22.691406 -36.671875 22.421875 -37.078125 C 22.191406 -37.429688 21.796875 -37.738281 21.234375 -38 C 20.679688 -38.269531 19.914062 -38.40625 18.9375 -38.40625 L 14.984375 -38.40625 L 15.0625 -24.765625 L 18.9375 -24.765625 C 19.914062 -24.765625 20.679688 -24.894531 21.234375 -25.15625 C 21.796875 -25.425781 22.191406 -25.738281 22.421875 -26.09375 C 22.691406 -26.5 22.847656 -26.96875 22.890625 -27.5 Z M 22.890625 -6.625 L 22.890625 -18.265625 C 22.847656 -18.753906 22.691406 -19.203125 22.421875 -19.609375 C 22.191406 -19.960938 21.796875 -20.273438 21.234375 -20.546875 C 20.679688 -20.816406 19.914062 -20.953125 18.9375 -20.953125 L 14.984375 -20.953125 L 14.984375 -9.90625 L 15.0625 -3.6875 L 18.9375 -3.6875 C 19.914062 -3.6875 20.679688 -3.816406 21.234375 -4.078125 C 21.796875 -4.347656 22.191406 -4.660156 22.421875 -5.015625 C 22.691406 -5.421875 22.847656 -5.867188 22.890625 -6.359375 Z M 22.890625 -6.625 "/></g></g></g><g fill="#d9d9d9" fill-opacity="1"><g transform="translate(45.465771, 60.180704)"><g><path d="M 17.875 -1.203125 C 18.09375 -1.117188 18.203125 -0.941406 18.203125 -0.671875 C 18.203125 -0.222656 18 0 17.59375 0 L 4.484375 0 C 4.035156 0 3.8125 -0.222656 3.8125 -0.671875 C 3.8125 -0.941406 3.925781 -1.117188 4.15625 -1.203125 L 4.21875 -1.265625 C 4.257812 -1.316406 4.414062 -1.453125 4.6875 -1.671875 C 4.957031 -1.890625 5.09375 -2.289062 5.09375 -2.875 C 5.09375 -2.875 5.09375 -2.941406 5.09375 -3.078125 C 5.09375 -3.210938 5.09375 -3.613281 5.09375 -4.28125 C 5.09375 -4.945312 5.09375 -6.015625 5.09375 -7.484375 C 5.09375 -8.960938 5.09375 -11.050781 5.09375 -13.75 C 5.09375 -16.445312 5.09375 -19.867188 5.09375 -24.015625 C 5.09375 -28.171875 5.09375 -33.28125 5.09375 -39.34375 C 5.09375 -39.925781 4.957031 -40.335938 4.6875 -40.578125 C 4.414062 -40.828125 4.257812 -40.972656 4.21875 -41.015625 L 4.15625 -41.015625 C 3.925781 -41.148438 3.8125 -41.332031 3.8125 -41.5625 C 3.8125 -42.007812 4.035156 -42.234375 4.484375 -42.234375 L 17.59375 -42.234375 C 18 -42.234375 18.203125 -42.007812 18.203125 -41.5625 C 18.203125 -41.332031 18.09375 -41.148438 17.875 -41.015625 C 17.78125 -40.972656 17.597656 -40.828125 17.328125 -40.578125 C 17.066406 -40.335938 16.9375 -39.925781 16.9375 -39.34375 L 16.9375 -2.875 C 16.9375 -2.289062 17.066406 -1.890625 17.328125 -1.671875 C 17.597656 -1.453125 17.78125 -1.316406 17.875 -1.265625 Z M 17.875 -1.203125 "/></g></g></g><g fill="#d9d9d9" fill-opacity="1"><g transform="translate(67.548312, 60.180704)"><g><path d="M 34.203125 -9.234375 C 34.109375 -7.492188 33.484375 -5.929688 32.328125 -4.546875 C 31.835938 -3.972656 31.210938 -3.40625 30.453125 -2.84375 C 29.691406 -2.28125 28.753906 -1.785156 27.640625 -1.359375 C 26.523438 -0.941406 25.207031 -0.597656 23.6875 -0.328125 C 22.175781 -0.0664062 20.414062 0.0625 18.40625 0.0625 C 16.925781 0.0625 15.585938 -0.00390625 14.390625 -0.140625 C 11.710938 -0.453125 9.59375 -1.03125 8.03125 -1.875 C 6.46875 -2.71875 5.285156 -3.609375 4.484375 -4.546875 C 3.679688 -5.484375 3.164062 -6.375 2.9375 -7.21875 C 2.71875 -8.070312 2.609375 -8.65625 2.609375 -8.96875 C 2.566406 -9.1875 2.546875 -9.5 2.546875 -9.90625 L 2.546875 -32.921875 C 2.546875 -33.054688 2.566406 -33.378906 2.609375 -33.890625 C 2.648438 -34.410156 2.851562 -35.023438 3.21875 -35.734375 C 3.53125 -36.398438 4.007812 -37.125 4.65625 -37.90625 C 5.300781 -38.6875 6.210938 -39.390625 7.390625 -40.015625 C 8.578125 -40.640625 10.050781 -41.164062 11.8125 -41.59375 C 13.570312 -42.019531 15.722656 -42.234375 18.265625 -42.234375 C 21.921875 -42.234375 24.796875 -41.828125 26.890625 -41.015625 C 28.992188 -40.210938 30.566406 -39.285156 31.609375 -38.234375 C 32.660156 -37.191406 33.332031 -36.164062 33.625 -35.15625 C 33.914062 -34.15625 34.082031 -33.476562 34.125 -33.125 C 34.125 -32.988281 34.132812 -32.84375 34.15625 -32.6875 C 34.1875 -32.53125 34.203125 -32.382812 34.203125 -32.25 C 34.203125 -30.601562 33.617188 -29.195312 32.453125 -28.03125 C 31.296875 -26.875 29.890625 -26.296875 28.234375 -26.296875 C 26.585938 -26.296875 25.195312 -26.875 24.0625 -28.03125 C 22.925781 -29.195312 22.359375 -30.601562 22.359375 -32.25 L 22.28125 -35.796875 C 22.238281 -36.296875 22.082031 -36.742188 21.8125 -37.140625 C 21.59375 -37.492188 21.203125 -37.804688 20.640625 -38.078125 C 20.085938 -38.347656 19.320312 -38.484375 18.34375 -38.484375 C 17.3125 -38.484375 16.523438 -38.335938 15.984375 -38.046875 C 15.453125 -37.753906 15.078125 -37.429688 14.859375 -37.078125 C 14.585938 -36.671875 14.429688 -36.222656 14.390625 -35.734375 L 14.390625 -8.359375 L 14.453125 -6.359375 C 14.492188 -5.867188 14.648438 -5.421875 14.921875 -5.015625 C 15.148438 -4.660156 15.53125 -4.347656 16.0625 -4.078125 C 16.59375 -3.816406 17.351562 -3.6875 18.34375 -3.6875 C 19.320312 -3.6875 20.085938 -3.816406 20.640625 -4.078125 C 21.203125 -4.347656 21.59375 -4.660156 21.8125 -5.015625 C 22.082031 -5.421875 22.238281 -5.867188 22.28125 -6.359375 L 22.359375 -10.03125 C 22.398438 -11.644531 22.988281 -13.007812 24.125 -14.125 C 25.257812 -15.238281 26.628906 -15.796875 28.234375 -15.796875 C 29.890625 -15.796875 31.296875 -15.222656 32.453125 -14.078125 C 33.617188 -12.941406 34.203125 -11.550781 34.203125 -9.90625 Z M 34.203125 -9.234375 "/></g></g></g><g fill="#d9d9d9" fill-opacity="1"><g transform="translate(104.352551, 60.180704)"><g><path d="M 17.875 -1.203125 C 18.09375 -1.117188 18.203125 -0.941406 18.203125 -0.671875 C 18.203125 -0.222656 18 0 17.59375 0 L 4.484375 0 C 4.035156 0 3.8125 -0.222656 3.8125 -0.671875 C 3.8125 -0.941406 3.925781 -1.117188 4.15625 -1.203125 L 4.21875 -1.265625 C 4.257812 -1.316406 4.414062 -1.453125 4.6875 -1.671875 C 4.957031 -1.890625 5.09375 -2.289062 5.09375 -2.875 C 5.09375 -2.875 5.09375 -2.941406 5.09375 -3.078125 C 5.09375 -3.210938 5.09375 -3.613281 5.09375 -4.28125 C 5.09375 -4.945312 5.09375 -6.015625 5.09375 -7.484375 C 5.09375 -8.960938 5.09375 -11.050781 5.09375 -13.75 C 5.09375 -16.445312 5.09375 -19.867188 5.09375 -24.015625 C 5.09375 -28.171875 5.09375 -33.28125 5.09375 -39.34375 C 5.09375 -39.925781 4.957031 -40.335938 4.6875 -40.578125 C 4.414062 -40.828125 4.257812 -40.972656 4.21875 -41.015625 L 4.15625 -41.015625 C 3.925781 -41.148438 3.8125 -41.332031 3.8125 -41.5625 C 3.8125 -42.007812 4.035156 -42.234375 4.484375 -42.234375 L 17.59375 -42.234375 C 18 -42.234375 18.203125 -42.007812 18.203125 -41.5625 C 18.203125 -41.332031 18.09375 -41.148438 17.875 -41.015625 C 17.78125 -40.972656 17.597656 -40.828125 17.328125 -40.578125 C 17.066406 -40.335938 16.9375 -39.925781 16.9375 -39.34375 L 16.9375 -2.875 C 16.9375 -2.289062 17.066406 -1.890625 17.328125 -1.671875 C 17.597656 -1.453125 17.78125 -1.316406 17.875 -1.265625 Z M 17.875 -1.203125 "/></g></g></g><g fill="#d9d9d9" fill-opacity="1"><g transform="translate(126.435093, 60.180704)"><g><path d="M 31.25 -44.03125 C 32.90625 -44.03125 34.3125 -43.460938 35.46875 -42.328125 C 36.625 -41.191406 37.203125 -39.796875 37.203125 -38.140625 C 37.203125 -37.742188 37.179688 -37.429688 37.140625 -37.203125 C 37.140625 -36.984375 37.082031 -36.613281 36.96875 -36.09375 C 36.863281 -35.582031 36.65625 -35.003906 36.34375 -34.359375 C 36.03125 -33.710938 35.5625 -33.054688 34.9375 -32.390625 C 34.3125 -31.722656 33.472656 -31.085938 32.421875 -30.484375 C 31.367188 -29.878906 30.070312 -29.363281 28.53125 -28.9375 C 27 -28.519531 25.160156 -28.265625 23.015625 -28.171875 L 23.015625 -2.9375 C 23.015625 -2.363281 23.148438 -1.960938 23.421875 -1.734375 C 23.691406 -1.515625 23.867188 -1.382812 23.953125 -1.34375 C 23.953125 -1.289062 23.976562 -1.265625 24.03125 -1.265625 C 24.207031 -1.179688 24.296875 -1.003906 24.296875 -0.734375 C 24.296875 -0.285156 24.09375 -0.0625 23.6875 -0.0625 L 10.578125 -0.0625 C 10.128906 -0.0625 9.90625 -0.285156 9.90625 -0.734375 C 9.90625 -1.003906 10.015625 -1.179688 10.234375 -1.265625 C 10.234375 -1.265625 10.257812 -1.289062 10.3125 -1.34375 C 10.394531 -1.382812 10.570312 -1.515625 10.84375 -1.734375 C 11.113281 -1.960938 11.25 -2.363281 11.25 -2.9375 L 11.25 -26.765625 C 11.019531 -27.078125 10.726562 -27.265625 10.375 -27.328125 C 10.019531 -27.398438 9.648438 -27.410156 9.265625 -27.359375 C 8.890625 -27.316406 8.507812 -27.226562 8.125 -27.09375 C 7.75 -26.96875 7.425781 -26.835938 7.15625 -26.703125 C 6.894531 -26.566406 6.628906 -26.375 6.359375 -26.125 C 6.085938 -25.882812 5.828125 -25.628906 5.578125 -25.359375 C 5.335938 -25.097656 5.082031 -24.863281 4.8125 -24.65625 C 4.550781 -24.457031 4.265625 -24.378906 3.953125 -24.421875 C 3.585938 -24.421875 3.316406 -24.566406 3.140625 -24.859375 C 2.960938 -25.148438 2.894531 -25.519531 2.9375 -25.96875 C 2.988281 -26.414062 3.125 -26.882812 3.34375 -27.375 C 3.570312 -27.863281 3.882812 -28.351562 4.28125 -28.84375 C 4.863281 -29.507812 5.519531 -30.03125 6.25 -30.40625 C 6.988281 -30.789062 7.691406 -31.09375 8.359375 -31.3125 C 9.035156 -31.539062 9.640625 -31.695312 10.171875 -31.78125 C 10.703125 -31.875 11.0625 -31.921875 11.25 -31.921875 L 11.25 -39.421875 C 11.25 -39.992188 11.113281 -40.398438 10.84375 -40.640625 C 10.570312 -40.890625 10.394531 -41.039062 10.3125 -41.09375 L 10.234375 -41.09375 C 10.015625 -41.226562 9.90625 -41.40625 9.90625 -41.625 C 9.90625 -42.070312 10.128906 -42.296875 10.578125 -42.296875 L 23.6875 -42.296875 C 24.09375 -42.296875 24.296875 -42.070312 24.296875 -41.625 C 24.296875 -41.445312 24.207031 -41.269531 24.03125 -41.09375 L 23.953125 -41.09375 C 23.867188 -41.039062 23.691406 -40.890625 23.421875 -40.640625 C 23.148438 -40.398438 23.015625 -39.992188 23.015625 -39.421875 L 23.015625 -32.125 C 23.597656 -32.257812 24.046875 -32.46875 24.359375 -32.75 C 24.671875 -33.039062 24.894531 -33.320312 25.03125 -33.59375 C 25.207031 -33.90625 25.296875 -34.238281 25.296875 -34.59375 L 25.359375 -38.140625 C 25.359375 -39.796875 25.9375 -41.191406 27.09375 -42.328125 C 28.257812 -43.460938 29.644531 -44.03125 31.25 -44.03125 Z M 31.25 -44.03125 "/></g></g></g><g fill="#d9d9d9" fill-opacity="1"><g transform="translate(166.58517, 60.180704)"><g><path d="M 28.90625 -15.859375 C 30.5625 -15.859375 31.96875 -15.289062 33.125 -14.15625 C 34.28125 -13.019531 34.859375 -11.625 34.859375 -9.96875 C 34.859375 -9.789062 34.847656 -9.632812 34.828125 -9.5 C 34.804688 -9.363281 34.796875 -9.207031 34.796875 -9.03125 C 34.753906 -8.71875 34.617188 -8.132812 34.390625 -7.28125 C 34.171875 -6.4375 33.660156 -5.546875 32.859375 -4.609375 C 32.054688 -3.679688 30.875 -2.789062 29.3125 -1.9375 C 27.75 -1.09375 25.628906 -0.515625 22.953125 -0.203125 C 21.742188 -0.0664062 20.40625 0 18.9375 0 L 10.84375 0 C 8.5625 0 5.992188 -0.0195312 3.140625 -0.0625 L 3.140625 -39.484375 C 3.097656 -39.972656 2.953125 -40.335938 2.703125 -40.578125 C 2.460938 -40.828125 2.296875 -40.972656 2.203125 -41.015625 C 1.984375 -41.148438 1.875 -41.332031 1.875 -41.5625 C 1.875 -42.007812 2.097656 -42.234375 2.546875 -42.234375 L 3.140625 -42.234375 L 19.078125 -42.296875 C 21.617188 -42.296875 23.769531 -42.082031 25.53125 -41.65625 C 27.289062 -41.226562 28.757812 -40.703125 29.9375 -40.078125 C 31.125 -39.460938 32.039062 -38.765625 32.6875 -37.984375 C 33.332031 -37.203125 33.8125 -36.472656 34.125 -35.796875 C 34.488281 -35.085938 34.703125 -34.472656 34.765625 -33.953125 C 34.828125 -33.441406 34.859375 -33.125 34.859375 -33 L 34.859375 -32.328125 C 34.859375 -30.671875 34.28125 -29.265625 33.125 -28.109375 C 31.96875 -26.953125 30.5625 -26.375 28.90625 -26.375 C 27.300781 -26.375 25.929688 -26.941406 24.796875 -28.078125 C 23.660156 -29.210938 23.066406 -30.5625 23.015625 -32.125 L 22.953125 -35.796875 C 22.910156 -36.296875 22.753906 -36.742188 22.484375 -37.140625 C 22.265625 -37.492188 21.875 -37.816406 21.3125 -38.109375 C 20.757812 -38.398438 19.988281 -38.546875 19 -38.546875 L 15.125 -38.546875 L 14.984375 -21.8125 L 17.328125 -21.8125 C 17.691406 -21.8125 17.972656 -21.910156 18.171875 -22.109375 C 18.367188 -22.316406 18.554688 -22.578125 18.734375 -22.890625 C 18.828125 -23.242188 18.941406 -23.488281 19.078125 -23.625 C 19.390625 -23.9375 19.722656 -24.09375 20.078125 -24.09375 L 20.875 -24.09375 C 21.238281 -24.09375 21.578125 -23.9375 21.890625 -23.625 C 22.148438 -23.394531 22.28125 -23.082031 22.28125 -22.6875 L 22.28125 -16.125 C 22.28125 -15.863281 22.171875 -15.578125 21.953125 -15.265625 C 21.640625 -14.953125 21.28125 -14.796875 20.875 -14.796875 L 20.078125 -14.796875 C 19.628906 -14.796875 19.25 -15.015625 18.9375 -15.453125 C 18.851562 -15.546875 18.8125 -15.640625 18.8125 -15.734375 C 18.625 -16.085938 18.421875 -16.363281 18.203125 -16.5625 C 17.984375 -16.757812 17.691406 -16.859375 17.328125 -16.859375 L 14.984375 -16.859375 L 15.0625 -3.75 L 19 -3.75 C 19.988281 -3.75 20.757812 -3.878906 21.3125 -4.140625 C 21.875 -4.410156 22.265625 -4.726562 22.484375 -5.09375 C 22.753906 -5.488281 22.910156 -5.929688 22.953125 -6.421875 L 22.953125 -8.4375 L 23.015625 -9.96875 C 23.015625 -11.625 23.582031 -13.019531 24.71875 -14.15625 C 25.863281 -15.289062 27.257812 -15.859375 28.90625 -15.859375 Z M 28.90625 -15.859375 "/></g></g></g><g fill="#d9d9d9" fill-opacity="1"><g transform="translate(203.389409, 60.180704)"><g><path d="M 34.203125 -9.234375 C 34.109375 -7.492188 33.484375 -5.929688 32.328125 -4.546875 C 31.835938 -3.972656 31.210938 -3.40625 30.453125 -2.84375 C 29.691406 -2.28125 28.753906 -1.785156 27.640625 -1.359375 C 26.523438 -0.941406 25.207031 -0.597656 23.6875 -0.328125 C 22.175781 -0.0664062 20.414062 0.0625 18.40625 0.0625 C 16.925781 0.0625 15.585938 -0.00390625 14.390625 -0.140625 C 11.710938 -0.453125 9.59375 -1.03125 8.03125 -1.875 C 6.46875 -2.71875 5.285156 -3.609375 4.484375 -4.546875 C 3.679688 -5.484375 3.164062 -6.375 2.9375 -7.21875 C 2.71875 -8.070312 2.609375 -8.65625 2.609375 -8.96875 C 2.566406 -9.1875 2.546875 -9.5 2.546875 -9.90625 L 2.546875 -32.921875 C 2.546875 -33.054688 2.566406 -33.378906 2.609375 -33.890625 C 2.648438 -34.410156 2.851562 -35.023438 3.21875 -35.734375 C 3.53125 -36.398438 4.007812 -37.125 4.65625 -37.90625 C 5.300781 -38.6875 6.210938 -39.390625 7.390625 -40.015625 C 8.578125 -40.640625 10.050781 -41.164062 11.8125 -41.59375 C 13.570312 -42.019531 15.722656 -42.234375 18.265625 -42.234375 C 21.921875 -42.234375 24.796875 -41.828125 26.890625 -41.015625 C 28.992188 -40.210938 30.566406 -39.285156 31.609375 -38.234375 C 32.660156 -37.191406 33.332031 -36.164062 33.625 -35.15625 C 33.914062 -34.15625 34.082031 -33.476562 34.125 -33.125 C 34.125 -32.988281 34.132812 -32.84375 34.15625 -32.6875 C 34.1875 -32.53125 34.203125 -32.382812 34.203125 -32.25 C 34.203125 -30.601562 33.617188 -29.195312 32.453125 -28.03125 C 31.296875 -26.875 29.890625 -26.296875 28.234375 -26.296875 C 26.585938 -26.296875 25.195312 -26.875 24.0625 -28.03125 C 22.925781 -29.195312 22.359375 -30.601562 22.359375 -32.25 L 22.28125 -35.796875 C 22.238281 -36.296875 22.082031 -36.742188 21.8125 -37.140625 C 21.59375 -37.492188 21.203125 -37.804688 20.640625 -38.078125 C 20.085938 -38.347656 19.320312 -38.484375 18.34375 -38.484375 C 17.3125 -38.484375 16.523438 -38.335938 15.984375 -38.046875 C 15.453125 -37.753906 15.078125 -37.429688 14.859375 -37.078125 C 14.585938 -36.671875 14.429688 -36.222656 14.390625 -35.734375 L 14.390625 -8.359375 L 14.453125 -6.359375 C 14.492188 -5.867188 14.648438 -5.421875 14.921875 -5.015625 C 15.148438 -4.660156 15.53125 -4.347656 16.0625 -4.078125 C 16.59375 -3.816406 17.351562 -3.6875 18.34375 -3.6875 C 19.320312 -3.6875 20.085938 -3.816406 20.640625 -4.078125 C 21.203125 -4.347656 21.59375 -4.660156 21.8125 -5.015625 C 22.082031 -5.421875 22.238281 -5.867188 22.28125 -6.359375 L 22.359375 -10.03125 C 22.398438 -11.644531 22.988281 -13.007812 24.125 -14.125 C 25.257812 -15.238281 26.628906 -15.796875 28.234375 -15.796875 C 29.890625 -15.796875 31.296875 -15.222656 32.453125 -14.078125 C 33.617188 -12.941406 34.203125 -11.550781 34.203125 -9.90625 Z M 34.203125 -9.234375 "/></g></g></g><g fill="#d9d9d9" fill-opacity="1"><g transform="translate(240.193649, 60.180704)"><g><path d="M 35.140625 -0.9375 C 35.359375 -0.84375 35.46875 -0.664062 35.46875 -0.40625 C 35.46875 0.0390625 35.242188 0.265625 34.796875 0.265625 L 22.359375 0.265625 L 22.359375 0.203125 L 22.359375 0.265625 L 21.6875 0.265625 C 21.28125 0.265625 21.078125 0.0390625 21.078125 -0.40625 C 21.078125 -0.664062 21.191406 -0.84375 21.421875 -0.9375 L 21.421875 -1 C 21.503906 -1.050781 21.679688 -1.1875 21.953125 -1.40625 C 22.222656 -1.625 22.359375 -2.023438 22.359375 -2.609375 L 22.359375 -18.734375 C 21.953125 -19.273438 21.523438 -19.609375 21.078125 -19.734375 L 15.859375 -19.734375 C 15.503906 -19.648438 15.222656 -19.492188 15.015625 -19.265625 C 14.816406 -19.046875 14.609375 -18.78125 14.390625 -18.46875 L 14.390625 -2.609375 C 14.390625 -2.023438 14.519531 -1.625 14.78125 -1.40625 C 15.050781 -1.1875 15.234375 -1.050781 15.328125 -1 L 15.328125 -0.9375 C 15.546875 -0.84375 15.65625 -0.664062 15.65625 -0.40625 C 15.65625 0.0390625 15.457031 0.265625 15.0625 0.265625 L 2.609375 0.265625 L 2.609375 0.203125 L 2.546875 0.265625 L 1.9375 0.265625 C 1.488281 0.265625 1.265625 0.0390625 1.265625 -0.40625 C 1.265625 -0.664062 1.378906 -0.84375 1.609375 -0.9375 L 1.671875 -1 C 1.710938 -1.050781 1.867188 -1.1875 2.140625 -1.40625 C 2.410156 -1.625 2.546875 -2.023438 2.546875 -2.609375 C 2.546875 -2.609375 2.546875 -2.675781 2.546875 -2.8125 C 2.546875 -2.945312 2.546875 -3.347656 2.546875 -4.015625 C 2.546875 -4.679688 2.546875 -5.75 2.546875 -7.21875 C 2.546875 -8.695312 2.546875 -10.785156 2.546875 -13.484375 C 2.546875 -16.179688 2.546875 -19.601562 2.546875 -23.75 C 2.546875 -27.90625 2.546875 -33.015625 2.546875 -39.078125 C 2.546875 -39.660156 2.410156 -40.070312 2.140625 -40.3125 C 1.867188 -40.5625 1.710938 -40.707031 1.671875 -40.75 L 1.609375 -40.75 C 1.378906 -40.882812 1.265625 -41.066406 1.265625 -41.296875 C 1.265625 -41.734375 1.488281 -41.953125 1.9375 -41.953125 L 15.0625 -41.953125 C 15.457031 -41.953125 15.65625 -41.734375 15.65625 -41.296875 C 15.65625 -41.066406 15.546875 -40.882812 15.328125 -40.75 C 15.234375 -40.707031 15.050781 -40.5625 14.78125 -40.3125 C 14.519531 -40.070312 14.390625 -39.660156 14.390625 -39.078125 L 14.390625 -23.09375 L 22.359375 -23.09375 L 22.359375 -39.078125 C 22.359375 -39.660156 22.222656 -40.070312 21.953125 -40.3125 C 21.679688 -40.5625 21.503906 -40.707031 21.421875 -40.75 C 21.191406 -40.882812 21.078125 -41.066406 21.078125 -41.296875 C 21.078125 -41.734375 21.28125 -41.953125 21.6875 -41.953125 L 34.796875 -41.953125 C 35.242188 -41.953125 35.46875 -41.734375 35.46875 -41.296875 C 35.46875 -41.066406 35.359375 -40.882812 35.140625 -40.75 C 35.046875 -40.707031 34.863281 -40.5625 34.59375 -40.3125 C 34.332031 -40.070312 34.203125 -39.660156 34.203125 -39.078125 L 34.203125 -2.609375 C 34.203125 -2.023438 34.332031 -1.625 34.59375 -1.40625 C 34.863281 -1.1875 35.046875 -1.050781 35.140625 -1 Z M 35.140625 -0.9375 "/></g></g></g><g fill="#d9d9d9" fill-opacity="1"><g transform="translate(276.99611, 60.180704)"><g/></g></g></svg>